<svg id="Capa_1" data-name="Capa 1" xmlns="http://www.w3.org/2000/svg" viewBox="0 0 356 108.4"><defs><style>.cls-1{fill:#1d1d1b;}</style></defs><path class="cls-1" d="M.21,21.48a362.58,362.58,0,0,0,2.67,58Q3.93,87.7,5.33,95.89a2.51,2.51,0,0,0,2.41,1.84,2.58,2.58,0,0,0,2.41-1.84A295.8,295.8,0,0,1,21.62,67.83q3.24-6.9,6.84-13.63a134.25,134.25,0,0,1,6.94-12,32.91,32.91,0,0,1,9.88-10l-3.76-2.16q1.2,23.73,2.41,47.46c.17,3.2,5.17,3.22,5,0q-1.2-23.73-2.41-47.46a2.52,2.52,0,0,0-3.76-2.16c-8,4.91-12.88,13.24-17.28,21.3A304.8,304.8,0,0,0,11.72,77.91Q8.27,86.15,5.33,94.56h4.82A359.3,359.3,0,0,1,5,37.66q-.07-8.1.2-16.18c.11-3.22-4.89-3.22-5,0Z"/><path class="cls-1" d="M52.11,89.5c4-9,7.91-17.93,11.94-26.85a159.44,159.44,0,0,1,12.21-23A73.16,73.16,0,0,1,85.43,28.4c2.29-2.27-1.25-5.8-3.53-3.53C69.05,37.63,62.12,54.72,54.89,71l-7.1,16a2.57,2.57,0,0,0,.9,3.42,2.51,2.51,0,0,0,3.42-.89Z"/><path class="cls-1" d="M97.69,13.77a28.15,28.15,0,0,1,1.66-2.87l.46-.66.24-.33.1-.13c-.24.32,0-.06.11-.13l.3-.37.53-.62A24.64,24.64,0,0,1,103.4,6.4c.2-.18.41-.35.62-.52l.19-.15c.15-.12.08-.07-.19.14,0-.09.25-.18.33-.24.45-.34.92-.66,1.39-1a2.55,2.55,0,0,0,.9-3.42,2.53,2.53,0,0,0-3.42-.9,27.68,27.68,0,0,0-9.84,10.89,2.5,2.5,0,1,0,4.31,2.53Z"/><path class="cls-1" d="M89.48,64.15c6.77,3.73,14.51-1.31,17.68-7.49,1.63-3.17,2.55-7.21,1.4-10.69a8.87,8.87,0,0,0-9-6c-4.24.21-7.72,2.8-10.41,5.91a44.27,44.27,0,0,0-6.69,10.31c-3.13,6.78-5.92,16.15-1.59,23,4.57,7.29,14,7.31,21.56,6.54a2.58,2.58,0,0,0,2.5-2.5,2.51,2.51,0,0,0-2.5-2.5c-4.86.49-11.14,1.18-15.32-2C82.31,75.2,83.51,68.18,85,63.25a39.49,39.49,0,0,1,4.15-9.06,27.3,27.3,0,0,1,6.3-7.56c1.9-1.42,4.9-2.54,7.06-1,1.86,1.36,1.68,4.11,1.17,6.1C102.53,56.35,97,62.58,92,59.84c-2.82-1.56-5.35,2.76-2.52,4.31Z"/><path class="cls-1" d="M124.07,40.47a208.54,208.54,0,0,1-4.53,47c-.66,3.13,3.88,4.42,4.83,1.33,1.35-4.44,3-9.33,6.89-12.24,3.07-2.31,7.12-2.91,10.19-.28a9,9,0,0,1,2.72,10,11.91,11.91,0,0,1-8,7.13c-4.86,1.3-10.21-.39-14-3.51a2.55,2.55,0,0,0-3.53,0,2.51,2.51,0,0,0,0,3.53c4.77,3.9,10.79,6.08,17,5.18a17,17,0,0,0,12.68-9.12,14,14,0,0,0-1.91-15.37,12.57,12.57,0,0,0-15.17-3.25c-6.61,3-9.59,10.08-11.59,16.63l4.83,1.33a215.67,215.67,0,0,0,4.7-48.33c0-3.22-5-3.23-5,0Z"/><path class="cls-1" d="M207.06,19.38c.06,22.88-.33,46.45-8.11,68.26a90.59,90.59,0,0,1-8.18,17c-1.7,2.75,2.62,5.26,4.31,2.53,12.54-20.29,15.9-44.45,16.73-67.86.23-6.66.27-13.32.25-20,0-3.22-5-3.23-5,0Z"/><path class="cls-1" d="M213.34,24.46a44.45,44.45,0,0,1,10.6,59.1,27.75,27.75,0,0,1-5.94,7.3c-1.36,1.06-4.47,2.43-5.87.57a2.58,2.58,0,0,0-3.42-.89,2.51,2.51,0,0,0-.9,3.42,8.38,8.38,0,0,0,8.6,3.11c3.24-.65,5.84-3,7.89-5.52A50,50,0,0,0,233.7,74a49.53,49.53,0,0,0-3.83-37.58,50.36,50.36,0,0,0-14-16.26,2.51,2.51,0,0,0-3.42.9,2.56,2.56,0,0,0,.9,3.42Z"/><path class="cls-1" d="M273.09,44.17a23.08,23.08,0,0,0-27.85,29.18,3.33,3.33,0,0,0,2.44,2.6c1.19.4,2.41.73,3.63,1q3.56.93,7.17,1.53c4.76.8,10.07,1.86,14.64-.18,7.27-3.23,12.59-11.79,11.69-19.78-1-8.74-9.73-16.05-18.62-13.57-3.1.87-1.78,5.69,1.33,4.83A9.33,9.33,0,0,1,276,52a10.85,10.85,0,0,1,3.86,8.8,15.16,15.16,0,0,1-4.26,9.61A14.83,14.83,0,0,1,271,73.85c-2.06.93-4.27.69-6.44.47a78.66,78.66,0,0,1-16-3.33l1.75,1.74A18.08,18.08,0,0,1,271.76,49c3.13.77,4.46-4.05,1.33-4.82Z"/><path class="cls-1" d="M319.13,43.27a19.85,19.85,0,0,0-14.54,3.63c-4.37,3.08-7.58,7.4-10.22,12-1.3,2.27-2.51,4.6-3.68,6.94a21.72,21.72,0,0,0-2.62,8.31c-.3,5,2.83,9.48,6.86,12.18C300,89.74,306.52,90,312.46,90c3.22,0,3.22-5,0-5-4.39,0-9.21,0-13.24-2-3-1.48-5.92-4.23-6.16-7.76A12.92,12.92,0,0,1,294.7,69c1-2,2.06-4,3.15-6,2.12-3.88,4.5-7.67,7.86-10.6s7.73-4.91,12.09-4.24a2.58,2.58,0,0,0,3.08-1.74,2.53,2.53,0,0,0-1.75-3.08Z"/><path class="cls-1" d="M354.18,48.56c-7.06-1.18-15.85-.8-19.7,6.37a10.66,10.66,0,0,0-.31,9.41A21.57,21.57,0,0,0,339.33,71c2,1.94,4.32,3.77,5.94,6.08a14.25,14.25,0,0,1-5.07,20.51,14.55,14.55,0,0,1-16.55-3.25c-2.18-2.38-5.71,1.16-3.54,3.53a19.49,19.49,0,0,0,17.23,5.72,17.83,17.83,0,0,0,14-11.28,19.36,19.36,0,0,0-1.65-17.61,41.48,41.48,0,0,0-6.2-6.64c-1.84-1.74-4.07-3.78-4.9-6.07a6.16,6.16,0,0,1,2.69-7.25c3.38-2.27,7.74-2,11.58-1.36a2.56,2.56,0,0,0,3.07-1.74,2.53,2.53,0,0,0-1.74-3.08Z"/></svg>