<svg id="Personaje" data-name="Capa 1" xmlns="http://www.w3.org/2000/svg" viewBox="0 0 1280 1281.6">
    <title>MrSwarow</title>
    <g id="Cabeza">
        <g id="Bigotes">
            <path class="cls-1"
                d="M527.45,1080.49c-123.89,66.57-308.49-52.2-365.71-182.84-22.81-52.07-43.42-147.22,0-182.84,25.9-21.26,74.45-21.2,91.43,0,20.39,25.48-17.88,65.08,0,91.43,17.76,26.16,72.61,12.41,182.84,0,109.12-12.3,164.07-18.07,182.87,0C667.82,853.3,630.83,1025,527.45,1080.49Z"
                transform="translate(-1.2 -1.69)" />
            <path class="cls-1"
                d="M754,1080.54c123.89,66.56,308.49-52.21,365.71-182.85,22.81-52.07,43.42-147.21,0-182.84-25.9-21.26-74.45-21.19-91.42,0-20.4,25.47,17.87,65.07,0,91.42-17.75,26.16-72.61,12.41-182.84,0-109.12-12.29-164.07-18.07-182.87,0C613.64,853.34,650.64,1025,754,1080.54Z"
                transform="translate(-1.2 -1.69)" />
        </g>
        <path id="Sombrero" class="cls-1"
            d="M872,459.61H823.12V227.88a42.52,42.52,0,0,0-42.52-42.52H499.94a42.52,42.52,0,0,0-42.52,42.52V459.61H408.5A42.52,42.52,0,0,0,366,502.13v6.39A42.52,42.52,0,0,0,408.5,551H872a42.52,42.52,0,0,0,42.52-42.52v-6.39A42.52,42.52,0,0,0,872,459.61Z"
            transform="translate(-1.2 -1.69)" />
        <g id="Monoc">
            <path class="cls-1"
                d="M810.21,565.76a91.43,91.43,0,1,0,91.43,91.43A91.43,91.43,0,0,0,810.21,565.76Zm0,170a78.52,78.52,0,1,1,78.51-78.52A78.53,78.53,0,0,1,810.21,735.71Z"
                transform="translate(-1.2 -1.69)" />
            <circle class="cls-1" cx="904.66" cy="640.8" r="12.7" />
        </g>
        <g id="Ojos">
            <circle class="cls-1" cx="784.66" cy="685.8" r="32.3" />
            <circle class="cls-1" cx="495.3" cy="687.16" r="30.93" />
        </g>
    </g>
    <path class="cls-1"
        d="M641.2,61.65A576.43,576.43,0,0,1,965.43,160.8a582.56,582.56,0,0,1,210.24,255.6,580.56,580.56,0,0,1-53.48,550.83,582,582,0,0,1-255.26,210.49,578.61,578.61,0,0,1-550-53.53,582.54,582.54,0,0,1-210.23-255.6A580.7,580.7,0,0,1,160.2,317.75,582.17,582.17,0,0,1,415.46,107.26,575.81,575.81,0,0,1,641.2,61.65m0-60c-353.47,0-640,286.9-640,640.8s286.53,640.8,640,640.8,640-286.89,640-640.8S994.66,1.69,641.2,1.69Z"
        transform="translate(-1.2 -1.69)" />
</svg>