<svg xmlns="http://www.w3.org/2000/svg" viewBox="0 0 1920 325.9"><defs><style>.a{fill:#3fa9f5;}.b{fill:#f2f2f2;stroke:#000;stroke-miterlimit:10;stroke-width:4px;}</style></defs><title>destackar blanco</title><path class="a" d="M207.38,23.59q7,7,7,18V294.9a24.59,24.59,0,0,1-7,17.83,23.5,23.5,0,0,1-17.62,7.17q-10.66,0-17.42-7t-7.17-17.63q-10.24,11.9-27.67,20.29a83.4,83.4,0,0,1-36.68,8.4q-28.27,0-51.23-14.55T13.32,269.08Q0,243.27,0,210.48t13.12-58.82q13.11-26,35.86-40.57a91.24,91.24,0,0,1,50.2-14.55,95,95,0,0,1,36.89,7.17A96.94,96.94,0,0,1,165.17,122V41.62a24.57,24.57,0,0,1,7-17.83,23.51,23.51,0,0,1,17.62-7.17Q200.41,16.62,207.38,23.59Zm-57,235.86q16.8-19.45,16.81-49t-16.81-49.19q-16.8-19.66-43.44-19.67-26.23,0-43,19.67T47.13,210.48q0,29.51,16.6,49T107,278.92Q133.61,278.92,150.41,259.45Z"/><path class="a" d="M436.07,221.13a26.08,26.08,0,0,1-17.21,6.15H283.61q4.92,24.18,22.54,37.91a63,63,0,0,0,39.75,13.73q16.8,0,26.23-3.07a68.16,68.16,0,0,0,15-6.56c3.69-2.32,6.22-3.9,7.59-4.71a31.22,31.22,0,0,1,13.93-3.69A20.16,20.16,0,0,1,423.37,267a19.71,19.71,0,0,1,6.14,14.35q0,11.07-11.47,20.08-11.49,9.44-30.74,16A120.44,120.44,0,0,1,348.36,324q-34.42,0-60-14.34a100.11,100.11,0,0,1-39.55-39.55q-13.94-25.22-13.93-56.77,0-35.24,14.75-61.88t38.94-40.78a100.56,100.56,0,0,1,51.64-14.14,95.77,95.77,0,0,1,51,14.75,110.24,110.24,0,0,1,38.32,39.76,106.91,106.91,0,0,1,14.35,54.1A21.05,21.05,0,0,1,436.07,221.13ZM284,186.29H391.4v-2.86q-1.65-17.22-16.81-29.51a53.16,53.16,0,0,0-34.42-12.3Q292.62,141.62,284,186.29Z"/><path class="b" d="M655.71,107.67a242.78,242.78,0,0,0-27.53-14.21,252.81,252.81,0,0,0-26.86-10,97.21,97.21,0,0,0-29.08-4.66q-11.55,0-18.43,3.55t-6.88,12a13.82,13.82,0,0,0,4,10.21,37.77,37.77,0,0,0,11.55,7.33,144.45,144.45,0,0,0,18.42,6.44q10.88,3.11,24.65,7.55a323.22,323.22,0,0,1,39.29,14.65,122.13,122.13,0,0,1,30,18.87,72.7,72.7,0,0,1,19.09,26.42q6.66,15.54,6.66,37.74,0,28.41-10.43,47.73a85.62,85.62,0,0,1-27.53,30.85A115.91,115.91,0,0,1,624,318.79a187.31,187.31,0,0,1-43.29,5.11,246.11,246.11,0,0,1-35.52-2.66A307.63,307.63,0,0,1,509,313.69a317.48,317.48,0,0,1-34.64-11.55,221.58,221.58,0,0,1-30.85-15.09l37.29-75.93a260,260,0,0,0,32.41,17.32,229.86,229.86,0,0,0,32.19,12A128.38,128.38,0,0,0,582,245.76q14.21,0,19.76-3.78a11.55,11.55,0,0,0,5.55-10,14.28,14.28,0,0,0-5.55-11.32q-5.55-4.66-15.32-8.21T564,205.35q-12.64-3.54-26.86-8.43a230.7,230.7,0,0,1-36-15.32A97.43,97.43,0,0,1,476.33,163,66.61,66.61,0,0,1,461.9,139.2q-4.66-13.32-4.66-30.64,0-26.19,9.55-46.18a94.79,94.79,0,0,1,26-33.3,116.22,116.22,0,0,1,37.52-20.2A143.11,143.11,0,0,1,574.9,2a169.41,169.41,0,0,1,33.74,3.33,270.62,270.62,0,0,1,31.75,8.44A302.37,302.37,0,0,1,669,24.87q13.32,6,24,11.32Z"/><path class="b" d="M901.13,98.59h-83.6V319.9H737.61V98.59h-84V28.91H901.13Z"/><path class="b" d="M921.63,28.91h73l100.82,291h-81.15l-17.62-57H919.17L902,319.9H820.4Zm62.3,180.75-25.82-90.17-27.05,90.17Z"/><path class="b" d="M1034.34,172a145.13,145.13,0,0,1,39.34-98.77A149.44,149.44,0,0,1,1120.4,40q27.46-12.7,62.71-12.71,42.21,0,73.16,17.42t46.11,46.11l-61.07,43.44a51.58,51.58,0,0,0-10.86-17.62,55.56,55.56,0,0,0-15-11.07,64.52,64.52,0,0,0-17-5.73,93.33,93.33,0,0,0-17-1.64q-17.21,0-29.71,6.76a61.13,61.13,0,0,0-20.49,17.62,76.1,76.1,0,0,0-11.89,24.59,99.42,99.42,0,0,0-3.89,27.26,94.1,94.1,0,0,0,4.5,29.1,75.9,75.9,0,0,0,13.12,24.59,64.09,64.09,0,0,0,21.11,17,61,61,0,0,0,28.07,6.35,80.15,80.15,0,0,0,16.81-1.84,62.42,62.42,0,0,0,16.59-6.15A56.11,56.11,0,0,0,1230,232.4a49.14,49.14,0,0,0,10-16.6l65.17,38.94a83.24,83.24,0,0,1-19.88,28.69A126.42,126.42,0,0,1,1255,304.74a160.93,160.93,0,0,1-36.48,13.12,168.06,168.06,0,0,1-37.91,4.5q-32.37,0-59.22-12.91a149.9,149.9,0,0,1-46.31-34.22A155.56,155.56,0,0,1,1045,226.87,148.56,148.56,0,0,1,1034.34,172Z"/><path class="b" d="M1276.14,319.9v-291h79.92V139.57l88.53-110.66h90.17L1429,159.24,1542.13,319.9h-91.8l-72.13-107-22.14,23v84Z"/><path class="a" d="M1737.21,103.51q7,7,7,18V294.9a24.55,24.55,0,0,1-7,17.83,23.49,23.49,0,0,1-17.62,7.17q-10.66,0-17.42-7a25.81,25.81,0,0,1-7.17-17.63q-10.24,11.9-27.66,20.29a83.43,83.43,0,0,1-36.68,8.4q-28.29,0-51.24-14.55t-36.27-40.37q-13.32-25.81-13.32-58.6T1543,151.66q13.11-26,35.86-40.57A91.27,91.27,0,0,1,1629,96.54a94.93,94.93,0,0,1,36.88,7.17A96.81,96.81,0,0,1,1695,122v-.41a24.57,24.57,0,0,1,7-17.83,23.51,23.51,0,0,1,17.62-7.17Q1730.24,96.54,1737.21,103.51Zm-57,155.94q16.8-19.45,16.8-49t-16.8-49.19q-16.82-19.66-43.45-19.67-26.23,0-43,19.67T1577,210.48q0,29.51,16.59,49t43.24,19.47Q1663.44,278.92,1680.25,259.45Z"/><path class="a" d="M1911.6,103.51q8.4,7,8.4,16.39,0,12.71-6.56,19.06a21.59,21.59,0,0,1-15.57,6.35,40.73,40.73,0,0,1-13.94-2.87q-1.23-.41-5.53-1.64a33.41,33.41,0,0,0-9.22-1.23,36.4,36.4,0,0,0-20.49,6.56q-9.84,6.56-16.19,19.88t-6.35,31.76V294.9a24.59,24.59,0,0,1-7,17.83,25.25,25.25,0,0,1-35.25,0,24.55,24.55,0,0,1-7-17.83V125.64a24.57,24.57,0,0,1,7-17.83,25.25,25.25,0,0,1,35.25,0,24.61,24.61,0,0,1,7,17.83V131a62.06,62.06,0,0,1,27-25.62,83.16,83.16,0,0,1,37.7-8.81Q1903.2,96.54,1911.6,103.51Z"/></svg>